<mxfile host="Electron" modified="2025-03-10T08:31:06.040Z" agent="Mozilla/5.0 (Windows NT 10.0; Win64; x64) AppleWebKit/537.36 (KHTML, like Gecko) draw.io/22.1.18 Chrome/120.0.6099.199 Electron/28.1.2 Safari/537.36" etag="0jAr3SUPj7r-T6BiFlpt" version="22.1.18" type="device">
  <diagram name="Page-1" id="9n51V0birsyVbleR57p-">
    <mxGraphModel dx="794" dy="477" grid="1" gridSize="10" guides="1" tooltips="1" connect="1" arrows="1" fold="1" page="1" pageScale="1" pageWidth="827" pageHeight="1169" math="0" shadow="0">
      <root>
        <mxCell id="0" />
        <mxCell id="1" parent="0" />
        <mxCell id="2BwICHEU_G4UWTc_6JAI-1" value="&lt;span style=&quot;font-size: 14px;&quot;&gt;&lt;b&gt;&amp;nbsp; Uptime App Diagram - Manage Service&lt;/b&gt;&lt;/span&gt;" style="rounded=0;whiteSpace=wrap;html=1;fillColor=#f5f5f5;fontColor=#333333;strokeColor=#666666;align=left;" parent="1" vertex="1">
          <mxGeometry x="10" width="690" height="30" as="geometry" />
        </mxCell>
        <mxCell id="2BwICHEU_G4UWTc_6JAI-2" value="Â© Sindre Ditlefsen 09.03.2025" style="text;html=1;strokeColor=none;fillColor=none;align=right;verticalAlign=middle;whiteSpace=wrap;rounded=0;" parent="1" vertex="1">
          <mxGeometry x="440" width="250" height="30" as="geometry" />
        </mxCell>
        <mxCell id="Z0VvkoSQmPEsNrfMpDx6-4" value="" style="endArrow=classic;html=1;rounded=0;" parent="1" edge="1">
          <mxGeometry width="50" height="50" relative="1" as="geometry">
            <mxPoint x="60" y="160" as="sourcePoint" />
            <mxPoint x="170" y="160" as="targetPoint" />
          </mxGeometry>
        </mxCell>
        <mxCell id="Z0VvkoSQmPEsNrfMpDx6-19" value="Scheduler" style="rounded=0;whiteSpace=wrap;html=1;fillColor=#d5e8d4;strokeColor=#82b366;" parent="1" vertex="1">
          <mxGeometry x="10" y="60" width="120" height="20" as="geometry" />
        </mxCell>
        <mxCell id="Z0VvkoSQmPEsNrfMpDx6-20" value="Cloud Run" style="rounded=0;whiteSpace=wrap;html=1;fillColor=#dae8fc;strokeColor=#6c8ebf;" parent="1" vertex="1">
          <mxGeometry x="184" y="60" width="166" height="20" as="geometry" />
        </mxCell>
        <mxCell id="wB3iV_8jUjmct32UmsA_-19" value="User" style="shape=umlActor;verticalLabelPosition=bottom;verticalAlign=top;html=1;outlineConnect=0;" vertex="1" parent="1">
          <mxGeometry x="30" y="128" width="30" height="60" as="geometry" />
        </mxCell>
        <mxCell id="wB3iV_8jUjmct32UmsA_-20" value="CRUD services&lt;br&gt;&lt;br&gt;Create&lt;br&gt;Read&lt;br&gt;Update&lt;br&gt;Delete" style="rounded=1;whiteSpace=wrap;html=1;verticalAlign=top;fillColor=#f5f5f5;fontColor=#333333;strokeColor=#666666;" vertex="1" parent="1">
          <mxGeometry x="184" y="100" width="166" height="100" as="geometry" />
        </mxCell>
        <mxCell id="wB3iV_8jUjmct32UmsA_-24" value="" style="endArrow=classic;html=1;rounded=0;" edge="1" parent="1">
          <mxGeometry width="50" height="50" relative="1" as="geometry">
            <mxPoint x="70" y="170" as="sourcePoint" />
            <mxPoint x="180" y="170" as="targetPoint" />
          </mxGeometry>
        </mxCell>
        <mxCell id="wB3iV_8jUjmct32UmsA_-25" value="Database" style="rounded=0;whiteSpace=wrap;html=1;fillColor=#e1d5e7;strokeColor=#9673a6;" vertex="1" parent="1">
          <mxGeometry x="390" y="60" width="166" height="20" as="geometry" />
        </mxCell>
        <mxCell id="wB3iV_8jUjmct32UmsA_-27" value="" style="edgeStyle=orthogonalEdgeStyle;rounded=0;orthogonalLoop=1;jettySize=auto;html=1;startArrow=classic;startFill=1;" edge="1" parent="1" source="wB3iV_8jUjmct32UmsA_-26" target="wB3iV_8jUjmct32UmsA_-20">
          <mxGeometry relative="1" as="geometry" />
        </mxCell>
        <mxCell id="wB3iV_8jUjmct32UmsA_-26" value="SQL" style="shape=image;verticalLabelPosition=bottom;labelBackgroundColor=default;verticalAlign=top;aspect=fixed;imageAspect=0;image=data:image/png,iVBORw0KGgoAAAANSUhEUgAAADAAAAAwCAYAAABXAvmHAAAAxHpUWHRSYXcgcHJvZmlsZSB0eXBlIGV4aWYAAHjabVBBDsMgDLvnFXsCxAHCc+jaSfvBnr8AaddWs4RrYuQmoe3zftGjg6OQpKK55hwMUqVyM6Fhog2OQQYPwC27X+p0GGwl/F5q9vd7PR4B89NMpVOQPt1YrkYVz9dbkP8IvSM2sXpQ9SDwNKIHtDlWyFXLeYRlC1foPNQJZWQfIfe7FNvemqwI5g0RwRjIswH0kwjNBIy7bX1DTSeIMWMfyRbyb0876Avgn1kYqrlBoAAAAYJpQ0NQSUNDIHByb2ZpbGUAAHicfZE7SANBGIS/JEpEFAtTiFhcES1EGxWxlCgGQUGSCEYtvLuYKOTOcJdgYynYBix8NL4KG2ttLWwFQfABYi9YKdqInP8mgQQxLiz7Mbsz7M6C/zBrWm7DKFh23olFI9pccl4LvhCgmSC9oJtubjo+kaDu+LzDp9bbfpVV/9yfozW17Jrg04RHzZyTF14SHl7P5xTvCofMFT0lfCbc58gFhR+UbpT5VXGmxH6VGXISsTHhkLCWqWGjhs0VxxIeEg6nLFvy/XNlTineUGxlC2blnuqFLcv2bFzpMruIMsk0M2gYFFglS55+WW1RXGKyH6nj7yz5Z8RliGsVUxzjrGGhl/yoP/jdrZseHCgntUSg8dnz3rshuA3fRc/7OvK872MIPMGlXfWvHcLIh+jFqhY+gLZNOL+qasYOXGxBx2NOd/SSFJDpT6fh7VS+KQntN9C8UO6tss/JPSSkq6lr2NuHnoxkL9Z5d1Ntb/+eqfT3A1tNcp0xAy7mAAAOVWlUWHRYTUw6Y29tLmFkb2JlLnhtcAAAAAAAPD94cGFja2V0IGJlZ2luPSLvu78iIGlkPSJXNU0wTXBDZWhpSHpyZVN6TlRjemtjOWQiPz4KPHg6eG1wbWV0YSB4bWxuczp4PSJhZG9iZTpuczptZXRhLyIgeDp4bXB0az0iWE1QIENvcmUgNC40LjAtRXhpdjIiPgogPHJkZjpSREYgeG1sbnM6cmRmPSJodHRwOi8vd3d3LnczLm9yZy8xOTk5LzAyLzIyLXJkZi1zeW50YXgtbnMjIj4KICA8cmRmOkRlc2NyaXB0aW9uIHJkZjphYm91dD0iIgogICAgeG1sbnM6eG1wTU09Imh0dHA6Ly9ucy5hZG9iZS5jb20veGFwLzEuMC9tbS8iCiAgICB4bWxuczpzdEV2dD0iaHR0cDovL25zLmFkb2JlLmNvbS94YXAvMS4wL3NUeXBlL1Jlc291cmNlRXZlbnQjIgogICAgeG1sbnM6ZGM9Imh0dHA6Ly9wdXJsLm9yZy9kYy9lbGVtZW50cy8xLjEvIgogICAgeG1sbnM6R0lNUD0iaHR0cDovL3d3dy5naW1wLm9yZy94bXAvIgogICAgeG1sbnM6dGlmZj0iaHR0cDovL25zLmFkb2JlLmNvbS90aWZmLzEuMC8iCiAgICB4bWxuczp4bXA9Imh0dHA6Ly9ucy5hZG9iZS5jb20veGFwLzEuMC8iCiAgIHhtcE1NOkRvY3VtZW50SUQ9ImdpbXA6ZG9jaWQ6Z2ltcDoxNzUxMTk1My0xYzIxLTQ0OWUtYjU5MS1hMzAzYTdiY2U2N2YiCiAgIHhtcE1NOkluc3RhbmNlSUQ9InhtcC5paWQ6OGJmY2RhMDAtMzMwZi00Yjg4LWI4ZTUtNmEwOWU4MzcwNjc0IgogICB4bXBNTTpPcmlnaW5hbERvY3VtZW50SUQ9InhtcC5kaWQ6YTZkZWI3YzMtMWQ1YS00NTlkLThiMGUtZjdkZWUwOTI2ZmI5IgogICBkYzpGb3JtYXQ9ImltYWdlL3BuZyIKICAgR0lNUDpBUEk9IjIuMCIKICAgR0lNUDpQbGF0Zm9ybT0iV2luZG93cyIKICAgR0lNUDpUaW1lU3RhbXA9IjE3NDE1OTMyNjM3NzY5ODgiCiAgIEdJTVA6VmVyc2lvbj0iMi4xMC4zNiIKICAgdGlmZjpPcmllbnRhdGlvbj0iMSIKICAgeG1wOkNyZWF0b3JUb29sPSJHSU1QIDIuMTAiCiAgIHhtcDpNZXRhZGF0YURhdGU9IjIwMjU6MDM6MTBUMDg6NTQ6MjMrMDE6MDAiCiAgIHhtcDpNb2RpZnlEYXRlPSIyMDI1OjAzOjEwVDA4OjU0OjIzKzAxOjAwIj4KICAgPHhtcE1NOkhpc3Rvcnk+CiAgICA8cmRmOlNlcT4KICAgICA8cmRmOmxpCiAgICAgIHN0RXZ0OmFjdGlvbj0ic2F2ZWQiCiAgICAgIHN0RXZ0OmNoYW5nZWQ9Ii8iCiAgICAgIHN0RXZ0Omluc3RhbmNlSUQ9InhtcC5paWQ6YTkzZmM0OTAtZTI0Yi00YTc0LWExMDYtZDE2OGQwMjczMWYwIgogICAgICBzdEV2dDpzb2Z0d2FyZUFnZW50PSJHaW1wIDIuMTAgKFdpbmRvd3MpIgogICAgICBzdEV2dDp3aGVuPSIyMDI1LTAzLTA5VDEwOjU1OjE4Ii8+CiAgICAgPHJkZjpsaQogICAgICBzdEV2dDphY3Rpb249InNhdmVkIgogICAgICBzdEV2dDpjaGFuZ2VkPSIvIgogICAgICBzdEV2dDppbnN0YW5jZUlEPSJ4bXAuaWlkOjRiMjg2ZjVhLTE0MzMtNDg0Ny1hMmMwLTRmMWFlYjM5NmY4ZCIKICAgICAgc3RFdnQ6c29mdHdhcmVBZ2VudD0iR2ltcCAyLjEwIChXaW5kb3dzKSIKICAgICAgc3RFdnQ6d2hlbj0iMjAyNS0wMy0xMFQwODo1NDoyMyIvPgogICAgPC9yZGY6U2VxPgogICA8L3htcE1NOkhpc3Rvcnk+CiAgPC9yZGY6RGVzY3JpcHRpb24+CiA8L3JkZjpSREY+CjwveDp4bXBtZXRhPgogICAgICAgICAgICAgICAgICAgICAgICAgICAgICAgICAgICAgICAgICAgICAgICAgICAgICAgICAgICAgICAgICAgICAgICAgICAgICAgICAgICAgICAgICAgICAgICAgICAgCiAgICAgICAgICAgICAgICAgICAgICAgICAgICAgICAgICAgICAgICAgICAgICAgICAgICAgICAgICAgICAgICAgICAgICAgICAgICAgICAgICAgICAgICAgICAgICAgICAgICAKICAgICAgICAgICAgICAgICAgICAgICAgICAgICAgICAgICAgICAgICAgICAgICAgICAgICAgICAgICAgICAgICAgICAgICAgICAgICAgICAgICAgICAgICAgICAgICAgICAgIAogICAgICAgICAgICAgICAgICAgICAgICAgICAgICAgICAgICAgICAgICAgICAgICAgICAgICAgICAgICAgICAgICAgICAgICAgICAgICAgICAgICAgICAgICAgICAgICAgICAgCiAgICAgICAgICAgICAgICAgICAgICAgICAgICAgICAgICAgICAgICAgICAgICAgICAgICAgICAgICAgICAgICAgICAgICAgICAgICAgICAgICAgICAgICAgICAgICAgICAgICAKICAgICAgICAgICAgICAgICAgICAgICAgICAgICAgICAgICAgICAgICAgICAgICAgICAgICAgICAgICAgICAgICAgICAgICAgICAgICAgICAgICAgICAgICAgICAgICAgICAgIAogICAgICAgICAgICAgICAgICAgICAgICAgICAgICAgICAgICAgICAgICAgICAgICAgICAgICAgICAgICAgICAgICAgICAgICAgICAgICAgICAgICAgICAgICAgICAgICAgICAgCiAgICAgICAgICAgICAgICAgICAgICAgICAgICAgICAgICAgICAgICAgICAgICAgICAgICAgICAgICAgICAgICAgICAgICAgICAgICAgICAgICAgICAgICAgICAgICAgICAgICAKICAgICAgICAgICAgICAgICAgICAgICAgICAgICAgICAgICAgICAgICAgICAgICAgICAgICAgICAgICAgICAgICAgICAgICAgICAgICAgICAgICAgICAgICAgICAgICAgICAgIAogICAgICAgICAgICAgICAgICAgICAgICAgICAgICAgICAgICAgICAgICAgICAgICAgICAgICAgICAgICAgICAgICAgICAgICAgICAgICAgICAgICAgICAgICAgICAgICAgICAgCiAgICAgICAgICAgICAgICAgICAgICAgICAgICAgICAgICAgICAgICAgICAgICAgICAgICAgICAgICAgICAgICAgICAgICAgICAgICAgICAgICAgICAgICAgICAgICAgICAgICAKICAgICAgICAgICAgICAgICAgICAgICAgICAgICAgICAgICAgICAgICAgICAgICAgICAgICAgICAgICAgICAgICAgICAgICAgICAgICAgICAgICAgICAgICAgICAgICAgICAgIAogICAgICAgICAgICAgICAgICAgICAgICAgICAgICAgICAgICAgICAgICAgICAgICAgICAgICAgICAgICAgICAgICAgICAgICAgICAgICAgICAgICAgICAgICAgICAgICAgICAgCiAgICAgICAgICAgICAgICAgICAgICAgICAgICAgICAgICAgICAgICAgICAgICAgICAgICAgICAgICAgICAgICAgICAgICAgICAgICAgICAgICAgICAgICAgICAgICAgICAgICAKICAgICAgICAgICAgICAgICAgICAgICAgICAgICAgICAgICAgICAgICAgICAgICAgICAgICAgICAgICAgICAgICAgICAgICAgICAgICAgICAgICAgICAgICAgICAgICAgICAgIAogICAgICAgICAgICAgICAgICAgICAgICAgICAgICAgICAgICAgICAgICAgICAgICAgICAgICAgICAgICAgICAgICAgICAgICAgICAgICAgICAgICAgICAgICAgICAgICAgICAgCiAgICAgICAgICAgICAgICAgICAgICAgICAgICAgICAgICAgICAgICAgICAgICAgICAgICAgICAgICAgICAgICAgICAgICAgICAgICAgICAgICAgICAgICAgICAgICAgICAgICAKICAgICAgICAgICAgICAgICAgICAgICAgICAgICAgICAgICAgICAgICAgICAgICAgICAgICAgICAgICAgICAgICAgICAgICAgICAgICAgICAgICAgICAgICAgICAgICAgICAgIAogICAgICAgICAgICAgICAgICAgICAgICAgICAgICAgICAgICAgICAgICAgICAgICAgICAgICAgICAgICAgICAgICAgICAgICAgICAgICAgICAgICAgICAgICAgICAgICAgICAgCiAgICAgICAgICAgICAgICAgICAgICAgICAgICAgICAgICAgICAgICAgICAgICAgICAgICAgICAgICAgICAgICAgICAgICAgICAgICAgICAgICAgICAgICAgICAgICAgICAgICAKICAgICAgICAgICAgICAgICAgICAgICAgICAgCjw/eHBhY2tldCBlbmQ9InciPz74L9cqAAAABmJLR0QAAABLALquOIPMAAAACXBIWXMAAAsTAAALEwEAmpwYAAAAB3RJTUUH6QMKBzYX2gJ4aQAABd5JREFUaN7tmWtsFFUUx3+z3Q4wLOUhDyFCDEqIBBMBRyIYMY3hEVFgUPEDaHB0CFTANOKDRVSgxQghgDaGKWutgAjK8AFB1LAkIKId+VKaEBSIAQOWiCm0Hcq03fGDd5uxbLvbdrfUhJNssrNz997zv+fc/3lcuC23pevKfLNOmrbWkTK5RkYmNyJOABjnQeG5yhiex3LgRDQciqV7rUAGlB8N7ASOAY+LzzFgZ25BzeguawEj4twDvAbMB7oBeICwQFxuACXA+mg4dLZLADAiziBgGWAAvfzvEgCISzVgAuui4VDlLQFgRJzewFIgDxiYaEwrAOJyGSgCNkXDoaudAsCIOCHgeeAt4K7WxqYAIC5/AGuBz6LhUE1GABgRpzugAe8C9yb5bww4CYTP/BkDKADuT0IaHnBGzG9Fw6G6tLFQeNf1KcBRYAcwIonyp4EXgPGmruyPhkP7gfHit9NJNnOEWOPo9HW1U9Jmgd0/uV9dqY7NPnvZ41pdi/5wHtgAFJu64iQakFtQowAvA/nAsERjugWhb08Jpbu0Z+tLytPJdAumZCYJaVCfAP1zoLIqxpnKGE590+u/gI1AkakrVa3NEw2HHGBTbkFNqTj8rwL9AbKzoF9PiVAPCUkCz0ttc4NtOTBZARjSL8DA3gEu/R3j9yvellrXW2XqysW2zBMNh6qAgtyCmpLsLFb2UaQFvXpIBNoRVoPtoa5gFgwdEGDoAGYAp6babommytfayGY5wDPAjI7EgSAdkzuF+yyxbHcVsFtT5etJFO8BPAusBIZ3NJAGUyTbZEFmOPApsNSy3UJgr6bKjc0UzwJmAcuBMSmsejVtAAISiwBb5Dqt7doYYDdwzLLd94DowfIGgFzgHWBiCsx3DlgvSZSkPRJbtpsDLBBABiYZ3uB5RL+raMDzyE1hsy4D64Etpq6kfJ6kFBXP1lS53vc8CHgFWALktBhaPfi+ooFY66nENWAz8JGpK5U+l8s2daU+XQCKgEvAx5oqX/H9PlT49DygZxsB1ALbgEJTVy74FL8DWAgMNnUlL10FTV9gNXDSst3Flu2GADRVvgAsAsYCu0S+n0xuiLFjgUVx5Y2IEzIizmKRQ60Wa6adRgcLc+dZtvsBsE241q/Ac5btPgSsAJ5IsDkxYD+wxtSVMr+rCAu+DozsrJJyJLAVKLNsd6Zlu0FhkTIRmCYDR0SG6Ynvk4EZceWNiBM0Is5MoEzMNbI9inQkkEnAA8Ae4Lhlu2GQftDU7EbgkGW7R4Cp4pAdjB9IEQ8eESn2wx2ty1MF0JjEihOBQ+B9I/j/hHCtfT5XkYBxIh5MA7I6sGabXSgfWAe0lm1mAdOB40CpZbujfMqPAkrFu+lJlK8Sa+VnIpANA8LAXEBJMrzW89guAtncRDTbTBxgO1Bg6sr5jBb1lu2OBt4E5rTmhikGsgZBq++bulKRERaybNewbHdC/FlT5QpBfROBA6n6awIfPyDmmOdX3og4E4yIY6TzED8GfGjZ7j6RBp/SVNkTNPoU8KhglfEpbEoM+Fm44hFTVxp9h/w+YBXwpGA3M51xQAZmi6y02LLdu4U1GjVVPgxMEgVKueD+RF2HcjFmkqkrh33K3w0Ui7lni7UyFgcUQAfmiBxps6bKFwVtWpbtfi06EMtElwHgN8EspaauuD5XGSISwjwg1NmBLAS8AeiW7W4EijRVrtJU2RUW+gJ4UbDEJ6auVPsU79O8qL9VJSVCgTWAYdnuBqBYU2VHU+VqYFOzqixpWyVTAEqEOzzYyphhoj5eaNnuGuBLTZVvCMW7Cd9fkWLO84tYM31xwLLddrUWvy1vwGtHa9HUlbq0AvABSb25m1og+09z19SVzDR3EwBJ3l5PDqCpvW7qSue01xMAafmCo2UATRcc/jr4lgDwAbn5iulmAE1XTKaudI0rphYSvbeBWZ5HtgBQD+wFVrcnYetUAALEv9esHoUCwHLghKkrMf5P8vmPrpS/o07ittyWriv/ANiVaYHnCz2VAAAAAElFTkSuQmCC;" vertex="1" parent="1">
          <mxGeometry x="449" y="126" width="48" height="48" as="geometry" />
        </mxCell>
      </root>
    </mxGraphModel>
  </diagram>
</mxfile>
